<?xml version="1.0" encoding="UTF-8"?> <!-- Generator: Adobe Illustrator 19.0.0, SVG Export Plug-In . SVG Version: 6.00 Build 0) --> <svg xmlns="http://www.w3.org/2000/svg" xmlns:xlink="http://www.w3.org/1999/xlink" x="0px" y="0px" viewBox="0 0 480 300" style="enable-background:new 0 0 480 300;" xml:space="preserve"> <style type="text/css"> .st0{fill:#FF0000;} .st1{fill:url(#XMLID_16_);} .st2{fill:url(#XMLID_48_);} .st3{fill:url(#XMLID_49_);} .st4{fill:url(#XMLID_50_);} .st5{fill:url(#XMLID_51_);} .st6{fill:none;} .st7{font-family:'OpenSansLight-Italic';} .st8{font-size:172px;} .st9{fill:#FFFFFF;} </style> <g id="Lag_1"> <polygon id="XMLID_3_" class="st0" points="451.5,64.1 89,64.1 52.5,235.9 415,235.9 "></polygon> <g id="XMLID_2_"> <g id="XMLID_91_"> <linearGradient id="XMLID_16_" gradientUnits="userSpaceOnUse" x1="506.7609" y1="156.5168" x2="515.0681" y2="176.2574"> <stop offset="0" style="stop-color:#FFFFFF"></stop> <stop offset="1" style="stop-color:#000000"></stop> </linearGradient> <path id="XMLID_103_" class="st1" d="M40.5,203.9h-8.2l19.4-91.3h8.1L40.5,203.9z M55.3,89.2c0-3.1,0.6-5.5,1.8-7.4 c1.2-1.8,2.9-2.8,5-2.8c3.2,0,4.8,2,4.8,6c0,3.2-0.6,5.7-1.8,7.6c-1.2,1.8-2.8,2.8-4.8,2.8c-1.6,0-2.9-0.5-3.7-1.6 C55.7,92.7,55.3,91.1,55.3,89.2z"></path> <linearGradient id="XMLID_48_" gradientUnits="userSpaceOnUse" x1="506.7609" y1="156.5168" x2="515.0681" y2="176.2574"> <stop offset="0" style="stop-color:#FFFFFF"></stop> <stop offset="1" style="stop-color:#000000"></stop> </linearGradient> <path id="XMLID_101_" class="st2" d="M129.9,203.9l12.5-58.1c1.2-5.2,1.8-9.5,1.8-13.1c0-4.5-1.2-8-3.7-10.5s-6.2-3.8-11.3-3.8 c-6.3,0-12.2,1.9-17.7,5.6c-5.5,3.8-10.2,9-13.9,15.8c-3.8,6.8-6.7,14.8-8.7,24l-8.6,40.1h-8.2L100,73.2h8.1l-7.2,34.5 c-2.5,11.2-4.3,19-5.5,23.4h0.5c4.4-6.3,9.6-11.2,15.7-14.7c6.1-3.5,12.5-5.2,19.3-5.2c6.9,0,12.3,1.8,16.1,5.5 c3.8,3.6,5.7,8.8,5.7,15.4c0,3.9-0.7,9-2,15.3l-12.4,56.6H129.9z"></path> <linearGradient id="XMLID_49_" gradientUnits="userSpaceOnUse" x1="506.7609" y1="156.5168" x2="515.0681" y2="176.2574"> <stop offset="0" style="stop-color:#FFFFFF"></stop> <stop offset="1" style="stop-color:#000000"></stop> </linearGradient> <path id="XMLID_98_" class="st3" d="M216.3,110.8c10.1,0,17.9,3,23.4,9.1c5.5,6.1,8.3,14.5,8.3,25.2c0,11-2,21.3-6,30.9 c-4,9.6-9.5,16.9-16.4,22c-6.9,5-14.9,7.6-24,7.6c-10.3,0-18.1-3.1-23.5-9.2c-5.3-6.1-8-14.9-8-26.3c0-10.7,2-20.7,6.1-30.1 c4.1-9.3,9.6-16.5,16.5-21.6C199.6,113.4,207.5,110.8,216.3,110.8z M215.6,118.1c-6.9,0-13.2,2.2-18.7,6.6 c-5.5,4.4-10,10.7-13.3,18.9c-3.3,8.2-5,16.9-5,26.1c0,19.1,7.9,28.7,23.7,28.7c7.1,0,13.4-2.2,18.9-6.5 c5.5-4.3,9.9-10.7,13.2-19.1c3.3-8.4,4.9-17.7,4.9-27.8c0-8.6-2-15.3-6.1-19.9C229.2,120.4,223.3,118.1,215.6,118.1z"></path> <linearGradient id="XMLID_50_" gradientUnits="userSpaceOnUse" x1="506.7609" y1="156.5168" x2="515.0681" y2="176.2574"> <stop offset="0" style="stop-color:#FFFFFF"></stop> <stop offset="1" style="stop-color:#000000"></stop> </linearGradient> <path id="XMLID_95_" class="st4" d="M298,205.2c-12.9,0-20.7-6.1-23.4-18.4h-0.3c-0.7,4-4.9,23.5-12.5,58.4h-8.3l28.2-132.6h6.9 l-3.8,23h0.5c5.1-8.6,10.6-14.8,16.4-18.8c5.9-4,12.2-6,19.2-6c7.6,0,13.4,2.6,17.5,7.8c4.1,5.2,6.1,13.1,6.1,23.7 c0,10.9-2,21.3-6,31.2c-4,9.9-9.6,17.6-16.6,23.3C314.8,202.4,306.8,205.2,298,205.2z M319,118.4c-4.9,0-9.7,1.6-14.6,4.9 s-9.4,8-13.6,14.1c-4.2,6.1-7.3,12.8-9.3,19.9c-2,7.2-3,13-3,17.5c0,7,1.7,12.6,5.2,16.8c3.4,4.2,8.2,6.3,14.2,6.3 c6.9,0,13.2-2.4,18.9-7.1c5.7-4.7,10.2-11.5,13.8-20.5c3.5-8.9,5.3-18,5.3-27.3C335.8,126.7,330.2,118.4,319,118.4z"></path> <linearGradient id="XMLID_51_" gradientUnits="userSpaceOnUse" x1="506.7609" y1="156.5168" x2="515.0681" y2="176.2574"> <stop offset="0" style="stop-color:#FFFFFF"></stop> <stop offset="1" style="stop-color:#000000"></stop> </linearGradient> <path id="XMLID_92_" class="st5" d="M392.1,205.6c-9.7,0-17.2-3.1-22.7-9.2c-5.4-6.1-8.1-14.7-8.1-25.7c0-10.1,2-19.8,6-29.1 c4-9.3,9.4-16.7,16.4-22.2c7-5.5,14.7-8.2,23.1-8.2c6.4,0,11.5,1.7,15.3,5.1c3.8,3.4,5.7,8.1,5.7,13.9c0,10.1-4.6,17.9-13.7,23.2 c-9.2,5.3-22.7,8-40.8,8h-2.8c-0.3,2.5-0.5,5.2-0.5,8.2c0,9.2,2.1,16.3,6.2,21.1c4.1,4.8,10.1,7.3,17.9,7.3 c7.4,0,15.1-2,23.2-6.1v7.9C409.3,203.6,401,205.6,392.1,205.6z M405.7,118.4c-7.3,0-14.2,3.2-20.5,9.7s-10.8,15.1-13.6,25.9h4.1 c28.9,0,43.4-7.6,43.4-22.7c0-3.8-1.2-6.8-3.7-9.3S409.7,118.4,405.7,118.4z"></path> </g> <rect id="XMLID_90_" x="25.9" y="73.2" class="st6" width="1211.9" height="761.2"></rect> <text id="XMLID_89_" transform="matrix(1 0 0 1 25.8809 203.8959)"><tspan x="0" y="0" class="st7 st8">i</tspan><tspan x="39.9" y="0" class="st9 st7 st8">hope</tspan></text> </g> <rect id="XMLID_4_" x="-328.6" y="-78.3" class="st6" width="370.7" height="27.6"></rect> <polygon id="XMLID_6_" class="st0" points="419.2,205.4 414.3,205.4 418,188.1 422.9,188.1 "></polygon> </g> <g id="Lag_2"> </g> </svg> 